<?xml version="1.0" standalone="no"?>
<!DOCTYPE svg PUBLIC "-//W3C//DTD SVG 20010904//EN"
 "http://www.w3.org/TR/2001/REC-SVG-20010904/DTD/svg10.dtd">
<svg version="1.0" xmlns="http://www.w3.org/2000/svg"
 width="1000.000000pt" height="1000.000000pt" viewBox="0 0 1000.000000 1000.000000"
 preserveAspectRatio="xMidYMid meet">
<metadata>
Created by potrace 1.14, written by Peter Selinger 2001-2017
</metadata>
<g transform="translate(0.000000,1000.000000) scale(0.100000,-0.100000)"
fill="#000000" stroke="none">
<path d="M4194 7713 c-56 -55 -134 -241 -184 -438 l-13 -51 -81 -29 c-379
-134 -767 -444 -1006 -804 -326 -489 -466 -1206 -349 -1786 55 -273 191 -571
345 -752 43 -50 54 -73 35 -73 -19 0 -90 -113 -113 -178 -32 -94 -32 -227 0
-297 46 -100 113 -144 222 -145 40 0 99 -10 154 -26 84 -25 93 -26 145 -13 32
8 112 14 186 14 122 0 133 2 181 27 28 15 74 52 102 83 l52 57 143 -26 c623
-112 1354 -134 1952 -60 120 15 335 51 359 60 10 4 14 -14 18 -73 6 -97 37
-172 104 -243 65 -70 137 -103 223 -103 196 0 392 149 512 388 81 162 99 310
50 419 l-19 44 35 48 c78 108 129 266 178 557 44 259 50 347 50 682 -1 351
-10 456 -66 727 -102 500 -331 925 -625 1158 l-70 55 -33 130 c-70 272 -105
360 -165 412 -92 82 -177 42 -422 -199 l-132 -130 -93 35 c-274 102 -631 163
-1006 174 -171 5 -213 9 -218 20 -15 42 -148 226 -201 280 -68 69 -112 93
-173 93 -33 0 -47 -7 -77 -37z m217 -109 c53 -57 127 -159 182 -255 l27 -46
228 -6 c397 -10 746 -72 1039 -184 l92 -35 143 144 c123 123 250 228 278 228
5 0 -7 -26 -26 -57 -40 -67 -72 -164 -81 -244 -7 -69 4 -160 21 -185 18 -24
35 -10 74 60 39 68 80 116 109 127 26 10 30 31 9 48 -22 19 -69 -11 -113 -70
l-38 -50 -3 52 c-4 69 29 172 80 251 32 50 41 58 53 48 32 -27 77 -147 125
-332 48 -189 50 -194 87 -223 89 -69 271 -264 331 -354 172 -257 303 -623 356
-991 58 -401 45 -902 -34 -1300 -45 -225 -92 -364 -149 -439 l-19 -25 -58 53
c-158 140 -339 161 -439 50 -20 -23 -45 -59 -55 -82 -10 -23 -41 -64 -70 -92
-60 -58 -76 -85 -99 -169 -9 -34 -35 -88 -58 -122 -46 -68 -26 -60 -283 -104
-596 -101 -1523 -79 -2176 51 l-51 10 14 52 c59 218 -141 427 -457 477 -135
21 -297 5 -397 -40 l-48 -21 -38 43 c-151 173 -293 477 -346 743 -99 492 -16
1068 222 1540 227 452 643 823 1107 989 l94 34 37 129 c41 141 97 288 124 325
15 19 16 20 10 3 -46 -131 -72 -400 -42 -439 8 -11 21 -17 29 -13 13 4 17 34
21 154 5 149 18 216 57 308 19 45 20 46 47 31 16 -7 53 -40 84 -72z m2573
-3732 c90 -43 159 -110 202 -197 36 -74 37 -75 32 -172 -6 -121 -40 -213 -122
-337 -70 -105 -158 -186 -255 -234 -69 -34 -82 -37 -160 -37 -100 0 -140 17
-208 87 -96 99 -126 249 -71 353 15 28 38 65 51 83 14 18 33 65 42 103 16 63
24 78 85 144 38 40 77 92 88 116 55 123 174 157 316 91z m-3486 -28 c156 -32
303 -129 356 -236 63 -126 10 -302 -120 -394 -59 -42 -119 -55 -212 -44 -53 6
-90 4 -130 -6 -79 -18 -119 -17 -192 6 -36 11 -90 20 -127 20 -162 0 -241 95
-231 279 11 201 115 329 304 375 80 20 257 20 352 0z"/>
<path d="M3690 6237 c-86 -20 -149 -56 -220 -128 -87 -87 -168 -239 -129 -239
7 0 50 41 97 90 102 108 163 155 229 175 67 21 68 20 18 -26 -26 -24 -59 -70
-78 -108 -40 -83 -50 -198 -22 -282 33 -98 168 -196 285 -206 76 -7 164 31
222 96 l42 46 -26 -45 c-33 -60 -133 -135 -205 -156 -86 -25 -203 -16 -272 21
-94 51 -174 163 -231 323 -28 76 -45 82 -37 11 10 -85 79 -214 156 -290 85
-84 141 -111 247 -117 66 -3 94 0 146 17 117 39 200 107 240 199 23 50 17 91
-8 58 -17 -24 -18 -19 -3 21 8 23 15 30 29 26 26 -7 34 30 25 104 -18 143 -85
272 -176 339 -86 63 -226 93 -329 71z m316 -282 c15 -23 15 -27 0 -50 -28 -42
-96 -29 -96 18 0 58 65 80 96 32z"/>
<path d="M5349 6239 c-267 -39 -461 -243 -551 -579 -17 -63 -19 -83 -9 -93 22
-22 45 7 87 109 81 197 154 309 248 376 l29 21 -17 -25 c-43 -65 -40 -294 6
-416 29 -77 103 -154 187 -194 116 -55 287 -51 419 12 75 35 145 98 183 165
l29 50 -1 -40 c-1 -37 -7 -45 -82 -113 -99 -89 -205 -144 -337 -174 -134 -30
-251 -28 -355 5 -126 41 -165 71 -288 221 -35 43 -52 26 -25 -27 54 -107 203
-216 343 -252 111 -28 282 -14 432 36 125 41 303 168 317 225 4 15 14 24 25
24 37 0 46 27 44 134 -3 155 -40 243 -150 347 -95 92 -232 161 -363 185 -84
15 -92 15 -171 3z m36 -254 c14 -13 25 -36 25 -50 0 -33 -41 -75 -73 -75 -40
0 -77 36 -77 75 0 24 7 39 26 54 35 28 69 26 99 -4z"/>
<path d="M3780 5310 c-158 -28 -228 -111 -217 -259 10 -134 105 -272 208 -302
21 -7 39 -13 39 -13 -1 -1 -9 -35 -19 -76 -16 -68 -21 -77 -52 -92 -101 -52
-226 15 -258 138 -12 43 -28 58 -51 44 -18 -11 -7 -71 23 -129 59 -116 201
-161 321 -101 l39 19 46 -33 c113 -83 258 -136 426 -156 178 -22 343 19 495
123 69 48 140 118 140 139 0 34 -29 33 -68 -4 -90 -84 -188 -144 -297 -180
-59 -19 -89 -23 -190 -22 -181 3 -320 45 -464 144 -67 45 -69 50 -46 126 l14
50 68 -4 c94 -5 164 22 232 90 75 75 105 142 105 237 0 125 -42 185 -160 226
-119 41 -231 53 -334 35z m-49 -337 c37 -31 63 -86 54 -114 -9 -27 -34 -24
-45 6 -5 13 -27 33 -48 44 -49 25 -58 45 -32 71 26 26 32 25 71 -7z m398 -65
c14 -37 -4 -55 -59 -63 -34 -5 -55 -14 -64 -27 -16 -23 -46 -18 -46 7 0 27 19
54 58 80 48 33 99 34 111 3z"/>
<path d="M3507 4924 c-14 -15 -6 -34 14 -34 14 0 19 5 17 17 -3 18 -20 27 -31
17z"/>
<path d="M3377 4864 c-14 -15 -6 -34 14 -34 14 0 19 5 17 17 -3 18 -20 27 -31
17z"/>
<path d="M4441 4776 c-9 -10 -8 -16 3 -25 10 -9 16 -8 25 3 9 10 8 16 -3 25
-10 9 -16 8 -25 -3z"/>
<path d="M3563 4754 c-7 -18 17 -38 31 -24 11 11 1 40 -14 40 -6 0 -13 -7 -17
-16z"/>
<path d="M4202 4753 c2 -10 10 -18 18 -18 8 0 16 8 18 18 2 12 -3 17 -18 17
-15 0 -20 -5 -18 -17z"/>
<path d="M4603 4654 c-8 -20 8 -36 26 -25 15 10 8 41 -9 41 -6 0 -13 -7 -17
-16z"/>
<path d="M4065 4641 c-8 -15 3 -31 21 -31 9 0 14 7 12 17 -4 20 -24 28 -33 14z"/>
<path d="M4377 4624 c-14 -15 -6 -34 14 -34 14 0 19 5 17 17 -3 18 -20 27 -31
17z"/>
<path d="M6700 3767 c0 -19 16 -30 89 -66 89 -44 111 -46 111 -11 0 15 -21 31
-80 60 -93 47 -120 51 -120 17z"/>
<path d="M6576 3591 c-12 -18 6 -37 79 -84 81 -51 115 -59 115 -27 0 13 -24
36 -75 70 -71 48 -107 60 -119 41z"/>
<path d="M6453 3393 c-7 -17 -1 -22 104 -104 54 -42 83 -46 83 -11 0 23 -134
132 -162 132 -10 0 -21 -7 -25 -17z"/>
<path d="M3033 3438 c-5 -8 -7 -54 -4 -113 6 -91 8 -100 26 -100 19 0 20 7 20
110 0 92 -3 110 -16 113 -9 1 -20 -3 -26 -10z"/>
<path d="M3271 3408 c-5 -13 -10 -63 -12 -113 -4 -87 -3 -90 18 -93 28 -4 32
13 36 133 2 78 0 90 -15 93 -12 2 -21 -5 -27 -20z"/>
<path d="M3499 3343 c-6 -32 -12 -80 -13 -108 -1 -44 2 -50 19 -50 17 0 23 12
37 75 9 41 17 90 17 108 1 28 -2 32 -23 32 -22 0 -26 -7 -37 -57z"/>
</g>
</svg>
